<?xml version="1.0" encoding="UTF-8" standalone="no"?>
<!-- Created with Inkscape (http://www.inkscape.org/) -->

<svg
   width="256.76169mm"
   height="264.60223mm"
   viewBox="0 0 256.76169 264.60224"
   version="1.1"
   id="svg5"
   inkscape:version="1.2.2 (1:1.2.2+202212051552+b0a8486541)"
   sodipodi:docname="rps3d.svg"
   xmlns:inkscape="http://www.inkscape.org/namespaces/inkscape"
   xmlns:sodipodi="http://sodipodi.sourceforge.net/DTD/sodipodi-0.dtd"
   xmlns="http://www.w3.org/2000/svg"
   xmlns:svg="http://www.w3.org/2000/svg">
  <sodipodi:namedview
     id="namedview7"
     pagecolor="#ffffff"
     bordercolor="#000000"
     borderopacity="0.25"
     inkscape:showpageshadow="2"
     inkscape:pageopacity="0.0"
     inkscape:pagecheckerboard="0"
     inkscape:deskcolor="#d1d1d1"
     inkscape:document-units="mm"
     showgrid="false"
     inkscape:zoom="0.457453"
     inkscape:cx="130.06801"
     inkscape:cy="490.7608"
     inkscape:window-width="2560"
     inkscape:window-height="1380"
     inkscape:window-x="0"
     inkscape:window-y="28"
     inkscape:window-maximized="1"
     inkscape:current-layer="layer1" />
  <defs
     id="defs2" />
  <g
     inkscape:label="Layer 1"
     inkscape:groupmode="layer"
     id="layer1"
     transform="translate(-296.30187,283.2136)">
    <g
       aria-label="ROCK"
       id="text236"
       style="font-size:63.5px;font-family:Beatrice;-inkscape-font-specification:Beatrice;fill:#ffffff;fill-rule:evenodd;stroke:none;stroke-width:3.175;stroke-linecap:round;stroke-dasharray:none;stroke-opacity:1;paint-order:stroke fill markers"
       transform="rotate(0.63426572,29021.309,28706.556)">
      <path
         d="m 34.859149,67.578655 c 0.243321,0.179971 0.303311,0.09887 0.546631,0.278836 0.973281,0.719886 1.876014,1.450329 2.789305,2.25132 l 5.560852,4.865944 c 1.664368,1.482003 3.388727,2.882899 5.113086,4.283796 0.578305,0.490481 1.174369,0.617662 1.78819,0.381541 2.395294,-0.863376 4.652849,-1.201237 7.090376,-1.78242 0.55383,-0.155013 1.199327,-0.179488 1.732041,-0.475599 0.613821,-0.236121 0.691569,-0.680528 0.3849,-1.283792 -0.112782,-0.271636 -0.285553,-0.462165 -0.377218,-0.592705 -1.353858,-1.816988 -2.817139,-3.401214 -4.442633,-5.105422 l -2.81378,-2.896816 c -1.258835,-1.182052 -2.38713,-2.455767 -3.645964,-3.637818 -0.416091,-0.3705 -0.479441,-0.793793 -0.119498,-1.280433 l 0.50104,-0.507757 c 0.490482,-0.578306 1.012638,-0.944966 1.432571,-1.512713 1.160934,-1.399932 2.018558,-2.898728 2.541197,-4.708034 0.374342,-1.35434 0.526479,-2.747555 0.456413,-4.179643 0.09551,-0.807709 0.03935,-1.664851 -0.07678,-2.440886 -0.105586,-0.705486 -0.29227,-1.470962 -0.549507,-2.22588 -0.451125,-1.086546 -0.711721,-2.345863 -1.374491,-3.400733 -1.21612,-2.342503 -3.173241,-3.852822 -5.20091,-5.352583 -1.936004,-1.369222 -3.988631,-2.071832 -6.238987,-2.16782 -0.211646,0.03167 -0.444409,-0.07775 -0.656055,-0.04607 -1.382656,-0.08159 -2.77587,-0.233727 -4.126851,-0.103665 -3.065265,0.242356 -5.844977,0.946877 -8.825776,1.75362 -1.308749,0.412252 -2.476401,0.803386 -3.848499,0.792346 -0.282195,0.04224 -0.49384,0.07391 -0.645495,0.02448 -0.49384,0.07391 -0.885458,0.348902 -1.023197,0.874417 -0.109428,0.232762 -0.137738,0.525515 -0.166054,0.818267 l 0.06622,2.370338 c 0.07342,1.936486 0.256272,3.640211 0.329697,5.576698 l 0.480386,8.511424 c 0.08398,2.007036 0.238515,4.003513 0.474153,6.059981 0.200606,1.340424 0.330662,2.691405 0.460719,4.042387 l 0.295628,1.975361 0.393529,4.557344 c 0.200605,1.340423 0.298988,2.479759 0.499592,3.820182 0.383453,3.044149 0.74579,5.9472 1.178674,8.839693 0.06671,0.92769 0.634455,1.347624 1.551587,1.210366 1.682609,-0.323944 3.407449,-0.365694 5.181723,-0.5591 L 34.57068,86.37531 c 0.564389,-0.08447 0.945448,-0.430009 1.072628,-1.026072 0.01776,-0.363301 0.03552,-0.726603 0.0038,-0.938249 L 35.54633,79.881962 c -0.0312,-1.654293 -0.203482,-3.287468 -0.386329,-4.991193 -0.295628,-1.975361 -0.520709,-3.961281 -0.604691,-5.968317 -0.0034,-0.504397 -0.11614,-0.776034 0.303793,-1.343782 z m -1.54821,-11.308894 c -0.34842,-2.328104 -0.777946,-4.716198 -1.196915,-7.033744 -0.158372,-1.058229 0.01101,-1.372098 1.037596,-1.742116 0.885458,-0.348902 1.792031,-0.556707 2.698605,-0.764512 2.176448,-0.397851 4.81458,0.36139 5.663557,3.624384 0.570624,2.366978 -0.231333,6.165562 -3.237089,7.769458 -1.146536,0.532231 -2.211964,1.124454 -3.369058,1.586137 -0.673812,0.317228 -1.068788,0.08783 -1.184928,-0.68821 z"
         style="-inkscape-font-specification:'Nickname DEMO';fill:#000000;stroke:none;stroke-width:3.175;stroke-dasharray:none;stroke-opacity:1"
         id="path1794" />
      <path
         d="M 98.211378,54.228002 C 97.593457,53.03105 97.236307,51.81065 96.618392,50.613698 95.447723,48.600514 94.29791,46.647307 92.668278,44.860952 91.200315,43.152838 89.65411,41.60639 87.651535,40.487559 86.295629,39.681694 85.041414,38.974928 83.432519,38.794875 82.36601,38.627903 81.299501,38.460931 80.193872,38.374792 c -0.925698,-0.148708 -1.848804,-0.09663 -2.769318,0.156241 -1.700217,0.524001 -3.400435,1.048001 -5.079796,1.631979 -0.680605,0.169443 -1.139566,0.396271 -1.778459,0.685668 -1.755011,0.946433 -3.103262,2.289258 -4.248134,3.830279 -0.336415,0.385903 -0.513754,0.64926 -0.730215,0.993451 -0.88929,1.115997 -1.67689,2.331092 -2.22199,3.663549 -1.01455,2.30246 -1.54669,4.638857 -2.076238,7.176042 -0.34172,1.530653 -0.58175,3.160405 -0.561015,4.766708 -0.03147,2.229523 0.278666,4.474719 0.588798,6.719915 0.284092,1.783643 0.808093,3.48386 1.551146,5.040675 0.104281,0.299886 0.289397,0.638893 0.534489,0.957043 1.20979,1.932351 2.852501,3.17632 4.638615,4.639342 1.379353,1.06663 2.915191,1.809926 4.628368,2.289865 l 2.641466,0.829434 c 0.524122,0.153891 1.009124,0.388616 1.491533,0.422553 1.428963,0.242622 2.777093,0.446123 4.203465,0.487957 1.045652,0.106995 1.929637,0.135748 2.850152,-0.11712 1.520286,-0.461431 3.022307,-0.782052 4.438311,-1.54337 1.316906,-0.659628 2.654669,-1.259278 3.768195,-2.117102 2.266174,-1.796481 3.744868,-3.924193 4.936757,-6.49001 0.312967,-0.646668 0.485123,-1.311601 0.798094,-1.958269 0.292112,-0.706646 0.542502,-1.533246 0.772052,-2.419823 0.41996,-1.692321 0.8008,-3.303808 0.71749,-5.090042 0.0339,-0.48241 -0.0104,-0.803153 0.0653,-1.165608 0.008,-2.490288 -0.10392,-4.938864 -1.09725,-7.215405 l -0.10428,-0.299886 z m -10.477752,3.509052 c 0.437984,1.259521 0.875967,2.519042 0.873254,3.86458 0.190178,2.286909 -0.06293,4.459047 -0.939263,6.578983 l -0.273846,0.565835 c -0.539916,1.734033 -1.833374,2.654426 -3.390189,3.397479 -1.418596,0.56053 -2.782399,0.698628 -4.391294,0.518575 -1.126485,-0.146116 -2.192994,-0.313088 -3.222974,-0.761682 -2.140793,-0.936308 -3.746974,-2.461899 -4.797689,-4.516795 -1.689486,-3.311826 -1.636921,-8.574024 -0.575353,-11.90128 0.346903,-1.129078 0.777232,-2.018247 1.327516,-2.949128 0.589404,-1.011716 1.343067,-1.744401 2.240133,-2.258034 l 0.119955,-0.04171 c 0.951859,-0.936065 2.13573,-1.011594 3.322193,-0.886335 1.306417,0.08355 2.49288,0.208807 3.606285,0.897309 1.822643,1.1814 3.363664,2.326272 4.513476,4.279479 0.247685,0.518938 0.594467,0.936186 0.883864,1.575079 0.367639,0.477226 0.474513,0.977899 0.703932,1.637648 z"
         style="-inkscape-font-specification:'Nickname DEMO';fill:#000000;stroke:none;stroke-width:3.175;stroke-dasharray:none;stroke-opacity:1"
         id="path1796" />
      <path
         d="m 112.24362,58.992065 c 0.0819,-0.934849 0.0199,-1.871226 0.24572,-2.804546 0.31311,-2.371962 1.62616,-4.013517 4.01266,-5.067844 0.65078,-0.280999 1.30157,-0.561999 1.9516,-0.77103 1.22884,-0.490794 2.45387,-0.62174 3.82054,-0.535243 0.64697,0.07885 1.22272,0.08497 1.79926,0.01911 1.08186,-0.204403 1.22655,-0.274883 1.45393,-1.352144 0.30699,-1.796199 0.61398,-3.592398 0.85055,-5.533303 0.22584,-0.933319 0.23578,-1.868933 0.31768,-2.803781 0.0773,-0.503027 -0.13314,-1.00913 -0.56123,-1.373551 -0.64238,-0.510672 -1.28782,-0.733465 -2.0772,-0.957785 -1.43636,-0.30317 -2.80685,-0.02981 -4.17505,0.02763 -1.51214,0.05591 -2.81295,0.545936 -4.18651,1.107183 -2.8183,1.049738 -5.20938,2.535886 -7.17703,4.818289 l -1.53125,1.855174 c -1.97302,2.7862 -3.01347,5.870217 -3.91076,9.027735 -0.52138,1.649967 -0.5382,3.233313 -0.77168,4.886334 -0.23044,1.365141 -0.31771,2.803784 -0.26026,4.171984 0.19526,1.945492 0.39206,3.747041 0.87674,5.55165 0.54905,2.525067 1.67684,4.768383 3.30998,6.873106 0.92415,1.089493 1.84906,2.107014 3.06567,2.767744 1.35903,0.806199 2.64685,1.539662 4.0074,2.201922 2.0037,1.100959 4.15899,1.483744 6.38701,1.795324 1.43712,0.231201 2.94772,0.319227 4.38637,0.406486 1.22272,0.08497 1.65989,-0.414235 1.74182,-1.349087 0.0742,-0.21514 0.0773,-0.503025 0.0811,-0.862877 0.0206,-1.943197 0.039,-3.670485 -0.0123,-5.614445 0.005,-0.503799 0.0811,-0.86288 0.0865,-1.366671 0.15389,-0.934086 -0.20062,-1.4417 -1.13393,-1.667549 -1.36439,-0.302405 -2.8015,-0.533606 -4.16664,-0.764044 -1.07802,-0.155408 -2.22496,-0.599461 -3.3696,-1.259426 -1.07267,-0.6592 -1.99912,-1.532782 -2.63538,-2.619216 -1.699,-2.681247 -2.67599,-5.570763 -2.42569,-8.807131 z"
         style="-inkscape-font-specification:'Nickname DEMO';fill:#000000;stroke:none;stroke-width:3.175;stroke-dasharray:none;stroke-opacity:1"
         id="path1798" />
      <path
         d="m 144.82049,69.126566 c 0.0682,-0.0036 0.0646,-0.07182 0.13287,-0.07542 0.35194,0.186751 0.7721,0.369914 1.0558,0.560253 l 2.35939,1.928534 c 0.57458,0.517146 1.15276,1.102526 1.79556,1.616085 0.8583,0.707483 1.63758,1.213863 2.43122,1.993173 0.79005,0.711077 1.44723,1.497566 2.10081,2.215821 l 2.40604,2.815567 c 0.43812,0.524325 0.99835,0.768538 1.67709,0.664409 0.26932,-0.08265 0.54586,-0.02872 0.81521,-0.111309 1.28565,-0.272901 2.51026,-0.405751 3.80311,-0.542192 1.28565,-0.272897 2.65032,-0.344697 3.93597,-0.617599 l 1.22102,-0.201082 c 1.01272,-0.25855 1.25693,-0.818766 0.73264,-1.680671 -0.38065,-0.732615 -0.75413,-1.328763 -1.27124,-2.054202 -2.07924,-3.106443 -4.35601,-6.065647 -6.69383,-8.884801 -1.24611,-1.57657 -2.55687,-3.081315 -4.06515,-4.438826 -0.50276,-0.452505 -0.58535,-0.721847 -0.2765,-1.353893 0.18676,-0.351935 0.24064,-0.628458 0.43097,-0.912157 l 2.31642,-4.090341 c 0.56026,-1.055805 0.98405,-2.10443 1.47606,-3.156641 0.93376,-1.759676 1.73464,-3.443936 2.45651,-5.329304 0.67518,-1.472383 1.07742,-2.930404 1.74543,-4.539253 l 1.49044,-4.183729 c 0.47766,-1.325146 -0.21902,-1.562182 -1.24611,-1.57657 -0.0682,0.0036 -0.0646,0.07182 -0.13288,0.07542 -0.88703,0.04667 -1.77048,0.161569 -2.66109,0.14 -1.78483,-0.111367 -3.56608,-0.1545 -5.41195,-0.125812 -0.75057,0.03949 -1.21025,0.405782 -1.45087,1.034235 -0.44532,0.639226 -0.68237,1.335919 -0.99122,1.967962 -0.68236,1.335917 -1.10256,2.452777 -1.78492,3.788691 -0.80446,1.616024 -1.74898,3.171 -2.48521,4.783436 -0.91222,2.169071 -2.11174,4.079574 -3.31124,5.99007 -0.2478,0.491991 -0.50279,0.847515 -0.82601,1.20663 -0.19392,0.215465 -0.39503,0.294469 -0.58896,0.509936 -0.14367,-0.129281 -0.21906,-0.262161 -0.22266,-0.330392 l -0.0682,-1.296432 c -0.12925,-1.156373 -0.19388,-2.384566 -0.2549,-3.54453 -0.12925,-1.156374 -0.12204,-2.319927 -0.38777,-3.469119 l -1.10956,-5.483805 c -0.097,-0.542267 -0.45607,-0.865492 -0.93729,-0.908596 -0.61769,-0.03593 -1.23537,-0.07185 -1.84588,0.02869 -1.97517,0.172335 -3.94675,0.412901 -6.07275,0.319484 -0.61768,-0.03593 -1.01272,0.25855 -1.11688,0.879821 0.0108,0.204687 0.0215,0.4094 -0.0395,0.549455 l 0.004,3.968288 c -0.1042,1.921298 -0.004,3.831821 0.0286,5.74594 0.0826,1.56936 0.16512,3.138722 0.17946,4.711672 0.11487,2.183458 0.025,4.377688 0.20814,6.557557 0.17952,2.111636 0.15074,4.165809 0.26202,6.281035 0.11487,2.183461 0.1651,4.43874 0.3482,6.618609 0.0969,1.842295 0.25131,3.476301 0.55294,5.307821 0.0251,0.477635 0.0395,0.750567 0.13284,1.224609 0.25215,0.876032 0.47042,1.138423 1.36105,1.15999 1.0235,-0.05385 2.0434,-0.175926 3.0633,-0.298002 1.1492,-0.265723 2.30557,-0.394982 3.47631,-0.251311 l 1.3036,0.06826 c 0.61768,0.03593 1.33954,-0.549426 1.30723,-1.163524 -0.0251,-0.477632 0.0288,-0.754155 0.0108,-1.095318 -0.15079,-1.565771 -0.23694,-3.203368 -0.52421,-4.761958 -0.12208,-1.019907 -0.3088,-1.96799 -0.36264,-2.991488 -0.1508,-1.565771 -0.15436,-2.934021 -0.50267,-4.35256 -0.0791,-0.201095 -0.0251,-0.47763 0.0216,-0.890618 z"
         style="-inkscape-font-specification:'Nickname DEMO';fill:#000000;stroke:none;stroke-width:3.175;stroke-dasharray:none;stroke-opacity:1"
         id="path1800" />
    </g>
    <g
       aria-label="paper"
       id="text1062"
       style="font-size:63.5px;font-family:'Nickname DEMO';-inkscape-font-specification:'Nickname DEMO';fill-rule:evenodd;stroke:none;stroke-width:3.175;stroke-linecap:round;stroke-dasharray:none;stroke-opacity:1;paint-order:stroke fill markers"
       transform="rotate(1.1364869,16922.441,15302.47)">
      <path
         d="m 32.819718,108.77874 c -2.259813,0.64609 -3.996949,1.26052 -5.482539,2.46144 -0.366622,0.31536 -0.851102,0.46816 -1.217723,0.78352 -1.134802,0.62421 -1.198627,0.8441 -0.998333,2.11259 0.0191,0.0606 0.0382,0.12111 -0.0033,0.20077 0.493301,1.77534 1.028064,3.471 1.400244,5.28454 0.362875,1.15064 0.665189,2.32037 0.986602,3.55067 0.837077,2.8654 1.655055,5.67026 2.55269,8.51657 0.821242,2.60408 1.725408,5.04882 2.54665,7.6529 0.46163,1.25266 0.802142,2.54351 1.203214,3.81526 0.210085,0.66617 0.48073,1.31322 0.630256,1.99848 0.534762,1.69568 0.989866,3.34989 1.524627,5.04557 0.149526,0.68525 0.586016,1.01368 1.350931,0.90562 0.965693,-0.10478 1.832629,-0.31163 2.798321,-0.41642 1.207934,-0.1812 2.23745,-0.50589 3.407185,-0.80819 0.927496,-0.22593 1.794433,-0.43275 2.70283,-0.71923 0.726717,-0.22918 0.975484,-0.70713 0.7654,-1.37329 -0.229184,-0.72672 -0.397807,-1.47253 -0.687552,-2.18016 -0.544553,-1.09333 -0.926527,-2.30452 -1.471081,-3.39787 l -0.55386,-1.75623 c -0.111328,-0.56414 0.09598,-0.96244 0.641017,-1.13432 0.768178,-0.30884 1.616017,-0.57623 2.403294,-0.82451 l 0.809639,-0.3885 c 1.561985,-0.95867 3.12397,-1.91737 4.5299,-3.15974 0.997848,-0.84736 1.734357,-1.67887 2.49323,-2.65062 2.190429,-2.5551 3.663932,-5.48336 3.82144,-8.99536 0.150497,-1.84519 0.01729,-3.53434 -0.456915,-5.24911 -0.168624,-0.74582 -0.337247,-1.49163 -0.566431,-2.21836 -0.210086,-0.66615 -0.299051,-1.37051 -0.690816,-1.97936 -0.4076,-0.87021 -0.974514,-1.82333 -1.640188,-2.87848 -0.939582,-1.50142 -2.102305,-2.8659 -3.775133,-3.73658 -0.876243,-0.45607 -1.711025,-0.9918 -2.753113,-1.12924 -2.406076,-0.23992 -4.697555,-0.11653 -7.03376,0.28737 -1.389613,0.23849 -2.760126,0.53754 -4.1721,0.91626 -1.896452,0.53149 -3.671787,1.02479 -5.064661,1.46406 z m 6.228096,14.6816 c -0.620947,-1.33559 -1.139875,-2.76993 -1.639703,-4.1437 -0.232449,-0.52594 -0.385237,-1.01042 -0.557125,-1.55546 -0.171887,-0.54504 -0.006,-0.86368 0.459338,-1.07703 0.832001,-0.52871 1.740398,-0.81519 2.827212,-0.95819 l 1.81353,-0.37218 c 0.745818,-0.16862 1.46927,-0.19703 2.269117,0.0168 1.720818,0.38947 3.173768,1.19632 4.317392,2.50023 0.315371,0.36663 0.551082,0.69179 0.665674,1.05514 0.560388,1.35469 0.779781,2.68374 0.635815,4.12738 -0.05452,0.88278 -0.450029,1.73992 -1.087784,2.67345 l -1.045836,1.32858 c -1.068198,1.46879 -2.4867,2.24904 -4.163277,2.84437 -0.423918,0.13369 -0.707619,0.28975 -1.131538,0.42343 -0.465378,0.21335 -0.844573,0.0666 -1.07702,-0.45934 l -1.311763,-3.31495 -1.095152,-3.05035 z"
         id="path1811"
         style="stroke:none;stroke-width:3.175;stroke-dasharray:none;stroke-opacity:1" />
      <path
         d="m 97.362965,137.47285 c -0.172271,-0.4821 -0.282558,-0.97797 -0.40663,-1.53585 -0.516813,-1.44629 -0.895871,-2.85817 -1.412684,-4.30447 -0.461672,-1.19834 -0.737388,-2.43806 -1.199058,-3.63642 -0.282558,-0.97798 -0.640886,-2.00416 -1.047414,-2.95458 l -1.198956,-3.05097 c -0.620157,-1.61846 -1.3505,-3.14737 -1.970657,-4.76583 -0.737287,-1.85262 -1.302401,-3.80859 -1.9295,-5.75077 -0.406529,-0.95041 -0.702872,-1.99038 -0.985428,-2.96836 l -1.405744,-3.98076 c -0.447886,-1.13637 -0.454828,-1.46008 -1.983838,-1.31517 l -4.449271,0.46911 -3.829417,0.33126 c -1.343055,0.10351 -2.679163,0.5308 -4.022216,0.63435 -2.21085,0.29653 -4.139244,0.98563 -6.253593,1.71606 -0.977983,0.28256 -1.487551,0.9163 -1.528706,1.90124 -0.08945,0.47525 -0.110087,0.67499 -0.07557,1.12268 l -0.102236,6.26768 c -0.0959,3.07874 -0.0058,6.11613 0.159995,9.20173 0.103445,0.75761 0.220672,1.5772 0.200144,2.36239 l 0.07688,6.48805 c 0.03472,1.61857 0.0074,3.25091 0.06973,4.99345 l 0.166535,7.18369 c -0.0067,0.84716 0.110488,1.66676 0.08996,2.45195 0.01389,0.64742 0.344543,0.96419 0.978183,0.88831 0.13776,0.0344 0.3237,-0.007 0.509669,-0.0483 1.384309,-0.50302 2.699792,-0.73054 3.96013,-1.20599 l 5.096497,-1.65388 c 0.730041,-0.22743 1.108796,-0.57186 1.129324,-1.35705 0.06193,-0.59922 -2e-4,-1.17088 -0.06224,-1.74254 -0.08976,-1.28107 -0.179519,-2.56213 -0.393246,-3.81563 -0.31023,-1.68739 -0.317374,-3.18199 -0.503632,-4.89695 -0.117226,-0.81961 0.103119,-0.99872 0.922739,-1.11595 0.943568,-0.1448 1.687394,-0.31023 2.617176,-0.51701 1.301697,-0.2895 2.706735,-0.40683 4.201331,-0.41398 1.398184,0.14451 1.535949,0.17885 2.073395,1.42537 l 1.426371,3.78101 1.825956,4.40771 c 0.330757,0.90222 0.985127,1.21205 1.887338,0.88129 0.668055,-0.21363 1.28791,-0.35149 1.969751,-0.50313 0.681841,-0.15165 1.377467,-0.2413 2.121293,-0.40673 0.68184,-0.15164 1.163938,-0.32391 1.831994,-0.53754 0.544084,-0.18607 1.115739,-0.24815 1.632251,-0.55817 0.640488,-0.3376 0.736876,-0.48915 0.585239,-1.17099 z M 81.105756,122.28862 c 0.151642,0.68184 -0.07557,1.12269 -0.68164,1.32252 l -4.345827,1.22674 c -0.0482,0.0757 -0.172171,0.10334 -0.358128,0.1447 -0.668055,0.21362 -1.046906,-0.0274 -1.074584,-0.73679 -0.03451,-0.44768 -0.007,-0.90916 0.08241,-1.38441 -0.08986,-1.86651 -0.241707,-3.71923 -0.193806,-5.55132 0.06193,-0.59922 -0.06219,-1.15709 0.01349,-1.69435 0.07567,-0.53723 0.330454,-0.8541 0.826338,-0.96439 0.557869,-0.12407 1.129525,-0.18615 1.70118,-0.24824 0.509669,-0.0483 0.87474,0.13072 1.122783,0.66101 0.454729,0.87464 0.861257,1.82505 1.254,2.71347 0.578799,1.43251 1.033629,2.8926 1.550442,4.33889 0.01378,0.0619 0.07577,0.0482 0.08956,0.11019 z"
         id="path1813"
         style="stroke:none;stroke-width:3.175;stroke-dasharray:none;stroke-opacity:1" />
      <path
         d="m 106.95249,101.19391 c -2.32746,0.32725 -4.13289,0.69545 -5.77034,1.6793 -0.40672,0.26162 -0.90768,0.34592 -1.314405,0.60753 -1.210244,0.46122 -1.303872,0.67016 -1.280991,1.95416 0.01054,0.0626 0.02107,0.12524 -0.03101,0.1984 0.242954,1.82649 0.53799,3.57984 0.655705,5.42743 0.200204,1.18977 0.337792,2.39008 0.485912,3.65301 0.432619,2.95366 0.854699,5.8447 1.349939,8.78783 0.45309,2.69264 1.01035,5.23897 1.46344,7.93162 0.2839,1.30447 0.44256,2.63002 0.66383,3.94504 0.11591,0.68881 0.29444,1.36709 0.34773,2.06644 0.29503,1.75335 0.51691,3.45462 0.81195,5.20797 0.0533,0.69936 0.44014,1.08501 1.21265,1.0838 0.97091,0.0298 1.85812,-0.0551 2.82903,-0.0253 1.22138,-0.0123 2.28592,-0.19147 3.48623,-0.32906 0.94983,-0.0954 1.83704,-0.18033 2.77634,-0.33839 0.75143,-0.12644 1.06393,-0.56538 0.94802,-1.2542 -0.12644,-0.75143 -0.19027,-1.5134 -0.37933,-2.2543 -0.38807,-1.15817 -0.59881,-2.41056 -0.98687,-3.56872 l -0.30557,-1.81597 c -0.0322,-0.57412 0.2282,-0.9399 0.79177,-1.03473 0.80352,-0.1996 1.6802,-0.34712 2.49425,-0.4841 l 0.85561,-0.27276 c 1.67959,-0.73337 3.35918,-1.46675 4.92346,-2.50268 1.10548,-0.70116 1.94994,-1.4228 2.83595,-2.28021 2.52285,-2.22751 4.38729,-4.92377 5.02913,-8.3802 0.40432,-1.80664 0.50608,-3.49797 0.27366,-5.26186 -0.0638,-0.76197 -0.12765,-1.52394 -0.25409,-2.27538 -0.11591,-0.68881 -0.10658,-1.3987 -0.41035,-2.05591 -0.28329,-0.91822 -0.7129,-1.94061 -1.2262,-3.07769 -0.72284,-1.61697 -1.68562,-3.12917 -3.22191,-4.22291 -0.80472,-0.57291 -1.55736,-1.21897 -2.57042,-1.49925 -2.34974,-0.5705 -4.63626,-0.76528 -7.00587,-0.68851 -1.40925,0.0439 -2.80795,0.15053 -4.25874,0.33026 -1.95175,0.26403 -3.77825,0.50698 -5.21851,0.74933 z m 4.13713,15.40202 c -0.43021,-1.40864 -0.74572,-2.90097 -1.05069,-4.33069 -0.15745,-0.55304 -0.24175,-1.054 -0.33658,-1.61757 -0.0948,-0.56358 0.1135,-0.85621 0.60392,-1.00312 0.89714,-0.40854 1.83644,-0.56659 2.93258,-0.55786 l 1.84758,-0.11772 c 0.76198,-0.0638 1.4824,0.008 2.24498,0.33056 1.65039,0.62379 2.97775,1.62389 3.92999,3.07348 0.26162,0.40672 0.45008,0.76137 0.5133,1.13709 0.36759,1.41917 0.40101,2.7658 0.0587,4.17564 -0.17612,0.86674 -0.68641,1.66093 -1.44717,2.49727 l -1.21958,1.1711 c -1.26112,1.30689 -2.77393,1.88341 -4.51674,2.24107 -0.43834,0.0738 -0.7409,0.18906 -1.17924,0.26282 -0.49042,0.14692 -0.84567,-0.0509 -1.00312,-0.60391 l -0.84055,-3.46456 -0.66263,-3.17252 z"
         id="path1815"
         style="stroke:none;stroke-width:3.175;stroke-dasharray:none;stroke-opacity:1" />
      <path
         d="m 160.67121,110.5674 c 0.16592,-0.48432 0.26967,-0.98161 0.36046,-1.41674 0.14266,-0.68378 0.30857,-1.1681 0.26475,-1.89079 0.005,-0.64755 -0.30275,-1.03618 -0.98653,-1.17884 -0.67081,-0.20482 -1.15513,-0.37073 -1.85188,-0.45123 -1.44268,-0.23613 -2.77133,-0.70794 -4.16213,-1.19272 -0.91946,-0.25669 -1.83891,-0.51339 -2.7843,-0.64577 -1.30539,-0.27235 -2.57456,-0.40741 -3.83076,-0.60463 -0.68377,-0.14267 -1.41674,-0.36046 -2.10052,-0.50312 -0.68378,-0.14266 -1.36755,-0.28532 -2.12646,-0.37879 l -0.93242,-0.19454 c -1.00755,-0.14534 -1.57238,0.38549 -1.80314,1.18062 l -0.53665,1.63946 c -0.51071,1.51513 -1.00846,2.9681 -1.42079,4.63349 -0.47986,2.29997 -1.20836,4.54807 -1.87471,6.80914 l -2.08981,7.21833 c -0.56259,1.76378 -1.05005,3.47836 -1.48832,5.26807 -0.6404,2.13675 -1.13055,4.17511 -1.62069,6.21347 l -1.0116,4.84859 -0.0908,0.43513 c -0.35509,0.7692 -0.57288,1.50216 -0.80364,2.29729 -0.21779,0.73297 0.18872,1.27186 0.94762,1.36533 0.57243,0.0546 1.20701,0.12209 1.7535,0.30097 1.14216,0.4329 2.23781,0.46689 3.47075,0.46466 2.60319,-0.0407 5.11558,0.35376 7.56314,1.05901 1.42971,0.29829 2.79726,0.58361 4.26588,0.69542 l 2.09024,0.2415 c 0.75891,0.0935 1.55404,0.32422 2.31295,0.41769 1.06971,0.15832 2.07726,0.30366 3.17292,0.33765 0.51026,0.0416 0.89888,-0.26653 1.07776,-0.81301 l 0.15563,-0.74594 c 0.21779,-0.73297 0.42262,-1.40377 0.51609,-2.16268 0.24641,-1.18107 0.3685,-2.38808 0.56572,-3.64428 l 0.1686,-0.80809 c 0.0416,-0.51027 -0.14221,-0.87295 -0.61356,-1.10103 -0.17351,-0.10107 -0.42216,-0.15294 -0.73297,-0.21779 -1.91403,-0.4642 -3.72969,-0.77815 -5.64372,-1.24235 -1.42972,-0.29829 -2.67295,-0.55768 -4.03022,-0.58139 -0.97133,-0.008 -1.84159,-0.18962 -2.76104,-0.44632 -0.67081,-0.20482 -1.00487,-0.46912 -0.86221,-1.15289 0.10376,-0.4973 0.19454,-0.93243 0.36045,-1.41675 0.14267,-0.68378 0.36046,-1.41674 0.57825,-2.14971 0.11672,-0.55946 0.31617,-0.58271 0.91454,-0.65247 l 1.59294,0.13774 c 2.30266,0.15609 4.68045,0.26298 6.96746,0.805 0.43513,0.0908 0.6708,0.20482 1.10593,0.2956 1.1681,0.30858 2.22753,0.20528 3.44751,0.26521 0.58539,-0.008 0.91185,-0.32869 1.02857,-0.88815 0.0908,-0.43513 0.13238,-0.94539 0.161,-1.39349 l 0.63863,-4.92641 c 0.10644,-0.82107 -0.23791,-1.34698 -0.97088,-1.56477 -1.51513,-0.51072 -3.04323,-0.95927 -4.70862,-1.3716 -0.91945,-0.2567 -1.78971,-0.43827 -2.72213,-0.6328 l -2.92159,-0.60956 c -0.43513,-0.0908 -0.69675,-0.0805 -1.11891,-0.23344 -0.48432,-0.16592 -0.68109,-0.46644 -0.6395,-0.9767 -0.0438,-0.72268 0.161,-1.39349 0.30366,-2.07727 0.10644,-0.82107 0.27504,-1.62916 0.5058,-2.42429 0.19453,-0.93243 0.2956,-1.10594 1.26693,-1.09789 1.09566,0.034 2.16537,0.19231 3.23508,0.35062 1.93998,0.33988 3.80482,0.72896 5.78371,0.88236 0.3108,0.0648 0.55945,0.11672 1.00755,0.14534 0.72268,-0.0438 0.89888,-0.26653 1.07777,-0.81301 l 0.0778,-0.37297 z"
         id="path1817"
         style="stroke:none;stroke-width:3.175;stroke-dasharray:none;stroke-opacity:1" />
      <path
         d="m 179.56521,135.51521 c -0.0677,-0.4393 -0.24164,-0.73374 0.16869,-0.98974 0.41027,-0.25603 0.65661,0.0915 1.00909,0.29421 l 1.99909,1.29812 c 0.79675,0.58394 1.56448,0.97961 2.36124,1.56355 1.38588,1.07139 2.71868,2.2152 3.97905,3.30593 1.70463,1.47201 3.13888,2.85719 4.84351,4.32919 0.38151,0.39095 0.85952,0.57427 1.28915,0.4438 0.25103,-0.0387 0.4924,-0.14013 0.74344,-0.17884 l 3.74123,-1.1549 c 1.22616,-0.38174 2.45232,-0.76349 3.6688,-1.20799 l 1.67987,-0.7729 c 0.52613,-0.3381 0.53086,-0.72432 0.13,-1.24078 l -0.22697,-0.22203 c -1.38589,-1.07138 -2.6656,-2.28762 -4.04181,-3.29625 -1.3762,-1.00864 -2.84892,-1.80963 -4.22513,-2.81826 -1.05746,-0.608 -2.06184,-1.28844 -3.00346,-1.97856 l -2.26474,-1.77117 c -0.86918,-0.63703 -0.90788,-0.88806 0.0913,-1.49182 1.31299,-0.65209 2.32657,-1.57935 2.99733,-2.64649 2.24398,-3.36562 3.35336,-7.0061 2.98531,-11.06136 -0.15996,-2.28834 -1.06336,-4.39784 -2.13568,-6.35281 -1.05298,-1.82945 -2.49691,-3.27739 -4.34145,-4.40658 -0.56978,-0.36192 -1.1733,-0.5259 -1.89267,-0.60776 -1.51118,-0.21684 -2.92089,-0.1923 -4.39336,-0.15809 -2.24493,0.0248 -4.20012,0.26188 -6.40636,0.53769 -0.82554,0.063 -1.56897,0.24183 -2.52003,0.32418 -0.50207,0.0774 -1.07657,0.10168 -1.57864,0.17907 l -5.69644,1.39201 c -1.04754,0.28997 -2.013,0.69578 -2.88666,1.28022 -0.47303,0.26568 -0.66604,0.68092 -0.66108,1.12989 -0.0144,0.32348 -0.0385,0.58419 0.01,0.89797 0.12104,1.2021 0.22273,2.27868 0.40652,3.4711 l 0.95788,7.04834 0.0871,0.56483 c 0.30506,3.22972 0.87083,6.48352 1.56212,9.71796 0.14013,0.4924 0.28028,0.98479 0.35767,1.48686 0.11607,0.75311 0.28525,1.43378 0.33857,2.19656 0.0922,1.84903 0.31001,3.67871 0.60988,5.62423 0.12575,0.81588 0.26118,1.69449 0.44969,2.50069 0.32394,1.68481 0.56577,3.25379 1.01523,4.91925 0.2272,1.05723 0.57965,1.25991 1.58383,1.10513 1.0669,-0.16445 2.18689,-0.40132 3.24412,-0.62853 0.56483,-0.0871 1.11998,-0.23688 1.68481,-0.32394 0.68068,-0.16916 1.3807,-0.21281 2.06137,-0.38197 0.31379,-0.0484 0.63726,-0.034 0.94139,-0.1451 0.68067,-0.16916 0.98951,-0.66652 0.8831,-1.35687 -0.005,-0.44898 -0.0436,-0.70002 -0.11136,-1.13933 -0.15478,-1.00414 -0.24678,-2.01795 -0.39188,-2.95934 -0.23216,-1.50621 -0.57049,-2.86756 -0.75428,-4.05998 z m 0.28857,-21.05419 c 0.95105,-0.0823 1.76693,-0.20808 2.54904,-0.13589 1.35664,0.0479 2.48653,0.70899 3.31726,1.9302 1.08671,1.63149 1.36724,3.4515 0.8319,5.39726 -0.29422,1.0091 -0.76231,1.72375 -1.37527,2.33222 -1.48168,1.64188 -3.22902,2.8107 -5.17927,3.49679 -0.18826,0.0291 -0.11585,0.0821 -0.30411,0.11116 -0.80618,0.18851 -1.08623,0.0389 -1.21199,-0.77694 l -1.29622,-8.40968 -0.27085,-1.75726 c -0.16917,-0.68068 0.0769,-1.16835 0.73824,-1.46304 0.78683,-0.31406 1.52061,-0.55561 2.20128,-0.72479 z"
         id="path1819"
         style="stroke:none;stroke-width:3.175;stroke-dasharray:none;stroke-opacity:1" />
    </g>
    <g
       aria-label="scissors"
       id="text1066"
       style="font-size:63.5px;font-family:'Nickname DEMO';-inkscape-font-specification:'Nickname DEMO';fill-rule:evenodd;stroke:none;stroke-width:3.175;stroke-linecap:round;stroke-dasharray:none;stroke-opacity:1;paint-order:stroke fill markers"
       transform="translate(294.72863,-325.94523)">
      <path
         d="m 17.65313,150.47415 c -0.133515,0.0482 -0.259663,0.0335 -0.385799,0.0187 -1.094335,0.0636 -2.244349,0.0567 -3.323905,-0.006 -2.544912,-0.10639 -4.5290876,1.00374 -6.257041,2.65537 -1.1790646,1.33233 -2.1689253,2.68684 -2.873002,4.33057 -0.7671438,1.63633 -1.2115584,3.24656 -1.474155,4.94202 -0.4182953,1.93296 -0.3098699,3.73582 -0.097479,5.74267 0.3981552,2.60404 1.6900991,4.67346 3.4604764,6.47925 2.1044462,2.22856 4.7686126,3.49974 7.5254056,4.52605 1.651121,0.641 3.120427,1.19677 4.54539,2.13096 0.530669,0.38184 0.872129,0.74153 1.2471,1.36087 0.256222,0.54151 0.26017,1.05345 -0.05861,1.5915 -0.318784,0.53806 -0.748925,0.9352 -1.346101,1.12096 -1.594933,0.51639 -3.067679,0.53563 -4.466526,-0.0758 -0.734658,-0.27786 -1.476692,-0.49271 -2.289196,-0.65183 -1.758528,-0.27 -3.4392105,-0.65872 -4.9050731,-1.78951 -0.4119209,-0.304 -0.8312301,-0.54493 -1.257928,-0.72281 -0.5454488,-0.2557 -0.9460301,-0.11084 -1.2574223,0.36415 -0.085238,0.18181 -0.2335455,0.35624 -0.3261746,0.60112 -0.9524019,2.12611 -1.6525303,4.28178 -2.1782317,6.58575 l -0.3222258,1.11307 c -0.1443561,0.68636 0.1118654,1.22786 0.7056016,1.6171 0.2448771,0.0926 0.4266845,0.17792 0.4823764,0.24833 1.873835,0.92284 3.6993826,1.71215 5.6954058,2.13784 l 1.7511387,0.33305 c 1.064773,0.18871 1.981117,0.55228 3.201713,0.50303 2.047754,-0.0158 4.151186,0.0389 6.221108,-0.16613 2.518793,-0.21635 4.684784,-1.24124 6.650231,-2.73717 1.691004,-1.33628 2.795662,-3.12488 3.599756,-5.07656 0.433583,-0.97215 0.622279,-2.03692 0.810984,-3.1017 0.344392,-1.30227 0.562652,-2.61932 0.276359,-3.99548 l -0.0823,-1.48014 c -0.241951,-1.75458 -0.687888,-3.40519 -1.73839,-4.80698 -0.612464,-0.77504 -1.310169,-1.36826 -1.922633,-2.1433 -0.634633,-0.58584 -1.410185,-1.06032 -2.207904,-1.3456 -1.476691,-0.49272 -3.00168,-1.11892 -4.478374,-1.61163 -1.539761,-0.5001 -3.072137,-1.06325 -4.441424,-1.92697 -0.656804,-0.39664 -1.320997,-0.7302 -1.744256,-1.48307 -0.605076,-0.83811 -0.943096,-1.7728 -0.375987,-2.79324 0.248326,-0.48237 0.671078,-0.81645 1.164288,-1.2062 0.775043,-0.61247 1.624493,-0.76867 2.592692,-0.84703 0.589785,-0.12269 1.213081,0.0143 1.780697,0.0808 1.094335,-0.0636 2.11082,-0.008 3.182985,0.11723 1.443186,0.23303 2.823305,0.45868 4.251712,0.81785 0.686365,0.14435 1.164793,-0.11926 1.427898,-0.72777 0.11481,-0.43408 0.214851,-0.74204 0.236987,-0.93125 l 0.733129,-2.98295 0.621771,-3.12386 c 0.08868,-0.75683 -0.238003,-1.24264 -0.909586,-1.51314 -0.545446,-0.25572 -1.098284,-0.44836 -1.658511,-0.57793 -0.812506,-0.15913 -1.69546,-0.2626 -2.515351,-0.35867 -1.268759,-0.0847 -2.53013,-0.23254 -3.85457,-0.38772 -0.31535,-0.0369 -0.623296,-0.13697 -1.057382,-0.25178 -0.812506,-0.15912 -1.625002,-0.31827 -2.359641,-0.59621 z"
         id="path1832"
         style="stroke:none;stroke-width:3.175;stroke-dasharray:none;stroke-opacity:1" />
      <path
         d="m 34.947969,173.03987 c -0.07443,1.2694 -0.28199,2.58818 -0.230167,3.87134 l 0.279271,2.71321 c 0.116175,1.86506 0.561739,3.63825 1.329813,5.3827 1.05742,2.60637 2.765512,4.51712 4.956756,6.09725 1.713744,1.2726 3.531881,2.17333 5.384407,2.75842 1.171891,0.38319 2.224407,0.68949 3.444442,0.63079 1.346289,-0.045 2.741948,0.0432 4.088236,-0.002 0.96753,-0.0862 1.795051,-0.0599 2.643206,-0.22302 0.708147,-0.0506 1.13505,-0.45122 1.217583,-1.20873 0.09506,-1.45879 0.316379,-2.90382 0.285189,-4.37636 0.06755,-1.20628 0.128226,-2.34943 0.06952,-3.56947 0.04004,-0.95377 -0.311206,-1.24755 -1.264981,-1.28759 -0.953774,-0.04 -1.774417,-0.12945 -2.70068,-0.42199 -0.926263,-0.29255 -1.999413,-0.40947 -2.988802,-0.7089 -0.813766,-0.15254 -1.55065,-0.42445 -2.210651,-0.81574 -1.270633,-0.64944 -1.848101,-1.79825 -2.411813,-3.0733 l -1.044887,-3.30735 c -0.593676,-2.17258 -0.794838,-4.43015 -0.526603,-6.89208 0.228193,-1.50816 0.695137,-2.86255 1.597088,-4.10567 1.517007,-2.19812 3.562112,-3.38057 6.128436,-3.48422 l 1.598794,-0.0174 4.620759,-0.19919 c 0.708146,-0.0506 1.128171,-0.38809 1.386329,-0.99872 l 0.258157,-0.61063 c 0.416347,-2.06254 0.888942,-4.05507 1.066539,-6.27138 0.07566,-0.69439 -0.19871,-1.10753 -0.746214,-1.35881 -0.484378,-0.24441 -0.926263,-0.29255 -1.424397,-0.4107 -0.989389,-0.29942 -1.999412,-0.40947 -3.002557,-0.58264 -0.56126,-0.12503 -1.129398,-0.18693 -1.704414,-0.1857 -1.479419,0.0943 -2.888834,0.13238 -4.416397,0.66858 -1.59069,0.52933 -3.18138,1.05865 -4.736455,1.84736 -1.688206,0.83808 -3.257036,1.75304 -4.45276,3.3474 l -2.705853,3.72937 c -0.391288,0.66 -0.775698,1.25688 -1.040733,1.93063 -0.432555,1.03876 -0.801983,2.0844 -1.122041,3.26317 -0.787001,2.53316 -1.328374,5.15696 -1.62412,7.8714 z"
         id="path1834"
         style="stroke:none;stroke-width:3.175;stroke-dasharray:none;stroke-opacity:1" />
      <path
         d="m 66.057943,185.51669 c 0.0093,1.01595 0.08267,2.09483 0.09254,3.17429 l 0.210823,2.22066 c 0.06873,0.57089 0.389698,0.94897 1.025251,1.00666 0.191076,0.0617 0.381623,0.0596 0.507983,-0.005 1.269947,-0.0116 2.475815,-0.0862 3.682266,-0.0972 l 3.811002,0.0922 c 1.461019,0.0501 1.838518,-0.33433 1.824577,-1.85827 -0.07337,-1.07888 -0.08325,-2.15833 -0.09428,-3.36478 -0.02091,-2.28591 0.02225,-4.50889 0.06484,-6.79537 l -0.0029,-0.3175 c -0.01452,-1.58742 0.03445,-3.17544 -0.04299,-4.6988 -0.07918,-1.71384 -0.285356,-3.42653 -0.364536,-5.14038 -0.06756,-0.4439 -0.0081,-0.88896 -0.0757,-1.33286 -0.272577,-2.02959 -0.227667,-4.06209 0.198807,-6.03457 0.416553,-3.05194 0.642708,-6.10214 0.614826,-9.15001 -0.07511,-1.26937 -0.523663,-1.70978 -1.793609,-1.69817 l -0.380984,0.003 c -0.954198,-0.18182 -1.905501,-0.0461 -2.859703,-0.22786 -1.58975,-0.23952 -3.05136,-0.35308 -4.384221,-0.27741 -0.190492,0.002 -0.507398,0.0682 -0.951298,0.13571 -0.569734,0.19572 -0.883735,0.57961 -0.940843,1.27866 0.007,0.76197 0.01452,1.58744 -0.04201,2.34999 l -0.18138,7.93948 c -0.04084,2.47698 0.04589,5.0163 0.005,7.49327 0.0087,0.95247 -0.109569,1.90609 -0.03678,2.92147 0.200368,1.07771 0.01975,2.15891 -0.03387,3.23894 l 0.0087,0.95246 c 0.007,0.76196 -0.04956,1.52452 0.02091,2.2859 0.0093,1.01596 0.145001,1.96726 0.154295,2.98321 0.0087,0.95247 -0.04607,1.90551 -0.03678,2.92147 z"
         id="path1836"
         style="stroke:none;stroke-width:3.175;stroke-dasharray:none;stroke-opacity:1" />
      <path
         d="m 93.810908,146.87237 c -0.128888,0.0595 -0.255841,0.0557 -0.382775,0.0517 -1.084856,0.15716 -2.231226,0.24888 -3.31217,0.2791 -2.544662,0.11216 -4.426367,1.3883 -6.006373,3.18198 -1.060509,1.42851 -1.930608,2.86288 -2.491183,4.56093 -0.624044,1.69607 -0.928783,3.33847 -1.045068,5.05019 -0.251053,1.96171 0.01153,3.74864 0.395175,5.7299 0.619924,2.56031 2.084515,4.51136 4.003178,6.15874 2.287744,2.03994 5.051076,3.07806 7.885701,3.86426 1.699995,0.4971 3.211535,0.92487 4.711338,1.73345 0.561446,0.33496 0.932486,0.66404 1.359169,1.24897 0.301702,0.51753 0.349522,1.02725 0.07804,1.59066 -0.271486,0.5634 -0.665997,0.99595 -1.245051,1.23223 -1.544794,0.65122 -3.010468,0.79663 -4.456583,0.30736 -0.755772,-0.21387 -1.513496,-0.3643 -2.336644,-0.45322 -1.7752,-0.11824 -3.483018,-0.36147 -5.040423,-1.36242 -0.436466,-0.26757 -0.874886,-0.47167 -1.315262,-0.61231 -0.565361,-0.20801 -0.952047,-0.0293 -1.221577,0.4706 -0.06934,0.18845 -0.202146,0.37495 -0.27344,0.62687 -0.766633,2.19992 -1.279388,4.40768 -1.605643,6.74824 l -0.225625,1.13659 c -0.08499,0.69622 0.216714,1.21375 0.841631,1.55066 0.251923,0.0713 0.440371,0.14067 0.501891,0.20606 1.946048,0.75881 3.832538,1.38872 5.857706,1.64173 l 1.773243,0.18171 c 1.077025,0.0968 2.02126,0.37992 3.233051,0.2267 2.03886,-0.19128 4.139233,-0.31713 6.183968,-0.69883 2.490968,-0.43147 4.561118,-1.63827 6.391098,-3.29718 1.57022,-1.47633 2.51748,-3.35304 3.1513,-5.36647 0.34865,-1.00574 0.44537,-2.08278 0.54214,-3.1598 0.23149,-1.327 0.33604,-2.65791 -0.0672,-4.00446 l -0.20889,-1.46764 c -0.39147,-1.72738 -0.97727,-3.33368 -2.14407,-4.64025 -0.67665,-0.71969 -1.42264,-1.25092 -2.09929,-1.9706 -0.68252,-0.52928 -1.49589,-0.93553 -2.31513,-1.15137 -1.51349,-0.36429 -3.086547,-0.85749 -4.600043,-1.22178 -1.576966,-0.36625 -3.151975,-0.79598 -4.590265,-1.53914 -0.688387,-0.33887 -1.378731,-0.61426 -1.864972,-1.32808 -0.674694,-0.78316 -1.091598,-1.68543 -0.614055,-2.75073 0.206058,-0.50188 0.598616,-0.87097 1.056597,-1.30156 0.719686,-0.67666 1.552618,-0.9051 2.510535,-1.06617 0.577097,-0.1728 1.209839,-0.0898 1.781069,-0.0722 1.084855,-0.15715 2.10233,-0.18933 3.181317,-0.15607 1.457857,0.10846 2.852227,0.21497 4.306167,0.45037 0.69621,0.085 1.15028,-0.21868 1.36025,-0.8475 0.0774,-0.44229 0.15044,-0.75773 0.15628,-0.94814 l 0.47467,-3.03482 0.35169,-3.16567 c 0.0235,-0.76164 -0.34365,-1.21767 -1.03595,-1.4296 -0.56536,-0.20801 -1.13268,-0.35255 -1.70195,-0.43363 -0.82315,-0.0889 -1.71172,-0.11629 -2.53683,-0.14171 -1.271354,0.0243 -2.540751,-0.0148 -3.873618,-0.0559 -0.317352,-0.01 -0.632737,-0.0831 -1.075075,-0.1602 -0.82315,-0.0889 -1.646299,-0.17783 -2.40212,-0.3914 z"
         id="path1838"
         style="stroke:none;stroke-width:3.175;stroke-dasharray:none;stroke-opacity:1" />
      <path
         d="m 130.4293,148.68064 c -0.13705,0.0371 -0.26154,0.0119 -0.38603,-0.0132 -1.09584,-0.0271 -2.24136,-0.12894 -3.31205,-0.2805 -2.52742,-0.31632 -4.59654,0.62606 -6.45506,2.12926 -1.28512,1.23035 -2.38352,2.49843 -3.22102,4.07836 -0.89974,1.56735 -1.47568,3.13535 -1.87748,4.80331 -0.57659,1.89178 -0.6175,3.69745 -0.57167,5.71499 0.18162,2.62802 1.29815,4.79711 2.91326,6.74303 1.91309,2.39482 4.46311,3.88181 7.12568,5.13239 1.59251,0.77523 3.01086,1.45054 4.35375,2.49927 0.4973,0.42439 0.80787,0.81106 1.13039,1.45927 0.2106,0.56082 0.17223,1.07134 -0.18993,1.58121 -0.36215,0.50988 -0.82364,0.87012 -1.43412,1.0059 -1.63215,0.38284 -3.10145,0.28031 -4.44498,-0.44463 -0.70918,-0.33765 -1.43084,-0.61327 -2.2275,-0.8388 -1.7302,-0.41438 -3.37302,-0.94065 -4.74042,-2.1887 -0.3854,-0.33699 -0.78336,-0.61176 -1.19391,-0.82427 -0.52245,-0.29991 -0.93363,-0.18864 -1.28321,0.25899 -0.0999,0.17416 -0.26218,0.33573 -0.37473,0.57212 -1.12482,2.04014 -2.00069,4.13058 -2.715,6.38323 l -0.41311,1.08262 c -0.20056,0.6721 0.01,1.23291 0.56957,1.66988 0.2364,0.11252 0.41052,0.21255 0.4602,0.28734 1.79118,1.07453 3.54525,2.01199 5.49927,2.60115 l 1.71764,0.47661 c 1.04554,0.27604 1.92889,0.71361 3.1492,0.76587 2.04205,0.15346 4.13377,0.38175 6.21356,0.3485 2.52805,-0.007 4.77132,-0.84988 6.85366,-2.17829 1.79564,-1.19198 3.04432,-2.88319 4.00693,-4.76175 0.51243,-0.93299 0.78849,-1.97853 1.0645,-3.02408 0.45084,-1.26935 0.77717,-2.56386 0.60557,-3.95899 l 0.0403,-1.48187 c -0.0961,-1.76857 -0.40416,-3.45039 -1.33523,-4.93418 -0.54633,-0.823 -1.19263,-1.47185 -1.73895,-2.29486 -0.58406,-0.63627 -1.31775,-1.17321 -2.08917,-1.52343 -1.43083,-0.61326 -2.89896,-1.36313 -4.32989,-1.97617 -1.49323,-0.62548 -2.97379,-1.31344 -4.26701,-2.28739 -0.62178,-0.44954 -1.25613,-0.83685 -1.61574,-1.62212 -0.53375,-0.88524 -0.79338,-1.84467 -0.14389,-2.81475 0.28734,-0.46022 0.73625,-0.75822 1.25998,-1.10588 0.823,-0.54632 1.68245,-0.6318 2.65381,-0.62989 0.59791,-0.0735 1.20776,0.11446 1.76794,0.22765 1.09584,0.0271 2.10429,0.16605 3.16241,0.37984 1.41899,0.35149 2.77575,0.69041 4.16959,1.16639 0.6721,0.20056 1.17067,-0.0226 1.48315,-0.60729 0.15025,-0.42313 0.27544,-0.72174 0.31317,-0.90847 l 0.97711,-2.91217 0.87778,-3.0618 c 0.15091,-0.7469 -0.13451,-1.25805 -0.78144,-1.58312 -0.52246,-0.29991 -1.05747,-0.53762 -1.60508,-0.71302 -0.79657,-0.22573 -1.66796,-0.4018 -2.47712,-0.56529 -1.25742,-0.18927 -2.50226,-0.4408 -3.80935,-0.7049 -0.3112,-0.0629 -0.60985,-0.18798 -1.03294,-0.33832 -0.79657,-0.22573 -1.59315,-0.45147 -2.30233,-0.78911 z"
         id="path1840"
         style="stroke:none;stroke-width:3.175;stroke-dasharray:none;stroke-opacity:1" />
      <path
         d="m 145.47545,172.07939 c -0.097,0.94755 -0.23775,1.69913 -0.25863,2.5268 -0.0497,2.35669 0.22934,4.61936 0.95059,6.9273 0.73418,2.18159 1.55093,4.18014 3.10134,5.8708 1.14055,1.32954 2.4333,2.41933 3.64996,3.629 2.13685,2.1975 4.80143,2.98089 7.78982,3.09527 l 4.16423,-0.14826 c 2.23682,-0.0264 3.98269,-0.86899 5.81759,-1.95782 1.63893,-1.04505 3.39126,-1.95083 4.86654,-3.26796 l 1.54492,-1.37384 c 0.28501,-0.28998 0.57002,-0.57997 0.86796,-0.9963 1.3748,-1.58274 2.50339,-3.25451 3.21565,-5.22422 0.37553,-1.17437 0.75106,-2.34874 0.8172,-3.6186 0.097,-0.94755 0.19397,-1.8951 0.3606,-2.89935 0.31384,-1.819 0.32477,-3.79667 0.0895,-5.86337 -0.31637,-2.52182 -0.76554,-4.9934 -1.733,-7.39037 -0.56556,-1.33452 -1.13111,-2.66904 -2.03838,-3.78321 -1.41761,-1.74089 -3.12022,-3.1918 -5.04468,-4.34625 -1.50812,-0.85651 -2.97248,-1.51705 -4.63281,-2.13381 -0.67547,-0.26063 -1.244,-0.31883 -1.80606,-0.44019 -0.94755,-0.097 -1.69913,-0.23774 -2.52034,-0.3218 -1.01072,-0.10345 -2.0085,-0.33324 -3.03862,-0.24718 -1.34597,0.0537 -2.8312,0.22087 -4.3423,0.64069 -2.23184,0.60137 -4.07967,1.81654 -5.61961,3.76537 -1.1659,1.41263 -2.02887,2.98392 -2.90478,4.68156 -1.04751,2.12689 -1.84881,4.34282 -2.41682,6.77412 -0.39641,2.00204 -0.54661,4.09312 -0.94302,6.09516 z m 26.58757,0.29574 c -0.23774,1.69913 -0.51926,3.20228 -1.37577,4.7104 -1.08482,1.86775 -2.50986,3.31769 -4.3383,4.34334 -1.02514,0.66106 -2.11842,0.74065 -3.33805,0.80731 -1.73792,0.14128 -2.99983,-0.6262 -4.36869,-1.59612 -1.84188,-1.3375 -2.99388,-3.17887 -3.39928,-5.45448 -0.33227,-1.11914 -0.46857,-2.28207 -0.34572,-3.4823 -0.005,-0.57499 0.10992,-1.07389 0.23128,-1.63595 0.54215,-2.17862 1.6399,-4.17271 2.78788,-6.03399 0.98286,-1.4952 2.29947,-2.50941 4.02594,-3.16251 0.52476,-0.13778 1.03658,-0.14923 1.56134,-0.28701 0.7078,-0.0552 1.34597,-0.0537 2.04084,0.0174 0.44865,-0.0179 0.75804,0.0776 1.19376,0.18602 2.87847,1.18827 4.6363,3.34697 5.14069,6.52635 l 0.2532,2.51536 c 0.10545,0.84061 -0.0482,1.71852 -0.0691,2.54619 z"
         id="path1842"
         style="stroke:none;stroke-width:3.175;stroke-dasharray:none;stroke-opacity:1" />
      <path
         d="m 195.94546,180.32866 c 0.0711,-0.43879 -0.004,-0.7725 0.46568,-0.8895 0.46923,-0.117 0.59638,0.28955 0.8692,0.59104 l 1.50137,1.8513 c 0.57787,0.80117 1.18618,1.41429 1.76405,2.21547 0.98797,1.44652 1.90312,2.94558 2.76573,4.37181 1.16766,1.92591 2.10489,3.68586 3.27254,5.61177 0.24237,0.48954 0.64055,0.81132 1.08949,0.81969 0.25073,0.0406 0.51161,0.0185 0.76235,0.0591 l 3.91505,0.055 c 1.28412,0.015 2.56824,0.0299 3.86251,-0.0178 l 1.83634,-0.21726 c 0.60475,-0.15938 0.72834,-0.52533 0.50627,-1.14023 l -0.14744,-0.28119 c -0.98798,-1.44653 -1.83029,-2.99812 -2.82842,-4.38196 -0.99813,-1.38385 -2.15208,-2.59994 -3.15021,-3.98379 -0.81844,-0.90445 -1.56406,-1.86144 -2.24699,-2.80828 l -1.60822,-2.38322 c -0.6304,-0.87401 -0.5898,-1.12474 0.54688,-1.39097 1.45008,-0.21548 2.70019,-0.78497 3.66733,-1.59327 3.17246,-2.50965 5.35035,-5.63065 6.25071,-9.60179 0.55347,-2.22616 0.34458,-4.51143 -0.0727,-6.70179 -0.43754,-2.065 -1.36461,-3.88762 -2.77107,-5.53057 -0.43042,-0.51999 -0.95397,-0.86208 -1.61304,-1.16178 -1.37066,-0.67224 -2.71925,-1.0836 -4.13052,-1.50511 -2.14317,-0.66869 -4.0762,-1.04603 -6.25998,-1.46398 -0.80473,-0.19464 -1.56708,-0.25376 -2.49719,-0.4687 -0.50146,-0.0812 -1.05546,-0.23524 -1.55693,-0.31644 l -5.84809,-0.43237 c -1.08592,-0.0472 -2.12945,0.0411 -3.14076,0.32766 -0.53192,0.10685 -0.84355,0.44235 -0.97729,0.87099 -0.11344,0.30326 -0.21672,0.54385 -0.26747,0.85726 -0.25554,1.18084 -0.49078,2.23631 -0.68364,3.42729 l -1.26221,7.00025 -0.0914,0.56416 c -0.70572,3.1664 -1.17086,6.43609 -1.51063,9.72609 -0.0185,0.51161 -0.037,1.02323 -0.11824,1.5247 -0.1218,0.7522 -0.17078,1.45187 -0.35526,2.19392 -0.48242,1.78737 -0.83946,3.59504 -1.15412,5.53823 -0.13196,0.81489 -0.27406,1.69245 -0.34334,2.51749 -0.21137,1.70261 -0.46513,3.26969 -0.55114,4.9926 -0.10988,1.07577 0.16294,1.37725 1.16587,1.53966 1.06562,0.17256 2.20408,0.29258 3.27985,0.40245 0.56415,0.0914 1.13845,0.12003 1.7026,0.21138 0.69967,0.049 1.37904,0.22331 2.07871,0.27228 0.31341,0.0507 0.61668,0.16419 0.94025,0.15226 0.69967,0.049 1.14682,-0.32891 1.25848,-1.01843 0.13373,-0.42864 0.17433,-0.67937 0.24539,-1.11815 0.1624,-1.00294 0.38749,-1.99573 0.53975,-2.93598 0.24361,-1.5044 0.34155,-2.90374 0.53441,-4.09473 z m 6.76678,-19.93923 c 0.9301,0.21494 1.74498,0.3469 2.46673,0.65675 1.27576,0.46389 2.14674,1.44119 2.56041,2.85904 0.53068,1.8871 0.23631,3.70492 -0.87293,5.39078 -0.59104,0.8692 -1.2567,1.40468 -2.02742,1.7945 -1.91576,1.10497 -3.93837,1.67803 -6.00515,1.72932 -0.18805,-0.0305 -0.13551,0.0424 -0.32356,0.0119 -0.82504,-0.0693 -1.04532,-0.29793 -0.91337,-1.11281 l 1.36016,-8.39959 0.28421,-1.75514 c 0.049,-0.69966 0.43344,-1.0877 1.15341,-1.16409 0.84533,-0.0561 1.61784,-0.0597 2.31751,-0.0107 z"
         id="path1844"
         style="stroke:none;stroke-width:3.175;stroke-dasharray:none;stroke-opacity:1" />
      <path
         d="m 232.78947,149.5811 c -0.10493,0.0957 -0.22714,0.1302 -0.34936,0.16475 -0.98697,0.47695 -2.05233,0.91007 -3.07385,1.26482 -2.39241,0.87422 -3.80175,2.65835 -4.76737,4.84496 -0.58042,1.6818 -0.97752,3.31178 -1,5.09981 -0.0836,1.80531 0.12109,3.46315 0.52635,5.13027 0.35214,1.9461 1.14131,3.57069 2.1045,5.34406 1.36308,2.25422 3.3478,3.67284 5.67389,4.66503 2.79637,1.25518 5.74411,1.41176 8.68386,1.30665 1.77076,-0.0386 3.34094,-0.0865 5.01475,0.23218 0.63631,0.15007 1.08931,0.35196 1.6725,0.781 0.44371,0.40249 0.643,0.87406 0.55403,1.4931 -0.089,0.61904 -0.33469,1.15042 -0.81555,1.5503 -1.27653,1.08671 -2.63014,1.6673 -4.15648,1.63683 -0.78509,0.024 -1.5529,0.10902 -2.36455,0.27246 -1.72823,0.42253 -3.4299,0.70558 -5.21663,0.22082 -0.49683,-0.12352 -0.97639,-0.18592 -1.43868,-0.18722 -0.60177,-0.0279 -0.91658,0.25909 -1.02282,0.81702 -0.009,0.20059 -0.0797,0.41846 -0.0717,0.68015 -0.0676,2.3287 0.1092,4.58831 0.50387,6.91831 l 0.12759,1.15172 c 0.1289,0.68943 0.57261,1.09191 1.27003,1.22471 0.26169,-0.008 0.46228,0.001 0.54066,0.0451 2.08428,0.1367 4.0729,0.16847 6.0801,-0.20094 l 1.74551,-0.36143 c 1.05606,-0.23253 2.04174,-0.2472 3.15093,-0.7587 1.88629,-0.79715 3.85096,-1.55047 5.68543,-2.53094 2.24494,-1.16249 3.85486,-2.93733 5.09945,-5.07082 1.05199,-1.88108 1.38929,-3.95607 1.38651,-6.06691 0.0292,-1.06405 -0.20337,-2.12012 -0.4359,-3.17619 -0.17941,-1.33503 -0.48104,-2.63553 -1.27151,-3.79784 l -0.64169,-1.33633 c -0.89411,-1.52895 -1.93698,-2.88386 -3.44345,-3.77779 -0.86216,-0.48216 -1.73361,-0.76373 -2.59577,-1.24589 -0.81035,-0.29885 -1.70836,-0.44094 -2.55455,-0.39971 -1.5529,0.10902 -3.20145,0.1131 -4.75435,0.22212 -1.61401,0.12629 -3.24528,0.19148 -4.84071,-0.0834 -0.75853,-0.11553 -1.49978,-0.16995 -2.17863,-0.70393 -0.87944,-0.54327 -1.54899,-1.27783 -1.41489,-2.43754 0.0451,-0.54066 0.30813,-1.01093 0.61496,-1.55958 0.48216,-0.86217 1.20744,-1.33114 2.07221,-1.77354 0.49813,-0.33878 1.12646,-0.4504 1.67641,-0.60585 0.98698,-0.47696 1.9474,-0.81443 2.98619,-1.10807 1.42271,-0.33617 2.7843,-0.65506 4.24155,-0.86902 0.68944,-0.12889 1.03081,-0.55533 1.0414,-1.21821 -0.0598,-0.44501 -0.0851,-0.76781 -0.13688,-0.95113 l -0.46246,-3.0367 -0.61922,-3.12438 c -0.20727,-0.73327 -0.69481,-1.05737 -1.41879,-1.05069 -0.60177,-0.0279 -1.18627,0.005 -1.75349,0.0997 -0.81165,0.16344 -1.66713,0.40526 -2.4615,0.6298 -1.20484,0.40656 -2.42696,0.75202 -3.71017,1.11475 -0.30553,0.0864 -0.62833,0.11162 -1.07335,0.17143 -0.81164,0.16344 -1.62329,0.32688 -2.40838,0.35083 z"
         id="path1846"
         style="stroke:none;stroke-width:3.175;stroke-dasharray:none;stroke-opacity:1" />
    </g>
    <g
       aria-label="3D"
       id="text1966"
       style="font-size:155.606px;font-family:'Nickname DEMO';-inkscape-font-specification:'Nickname DEMO';fill-rule:evenodd;stroke:none;stroke-width:3.175;stroke-linecap:round;stroke-dasharray:none;stroke-opacity:1;paint-order:stroke fill markers">
      <path
         d="m 367.85355,-101.26523 c 1.71167,0 3.11212,-0.15561 4.51258,0 1.86727,0.15561 3.57894,0.15561 5.2906,0.62242 2.33409,0.46682 4.20136,1.86728 5.60182,3.578947 2.33409,2.489696 1.71166,6.068634 -0.77803,7.935906 -2.4897,1.711666 -5.29061,2.956514 -8.40273,3.11212 -1.08924,0.155606 -2.33409,0.155606 -3.42333,0.622424 -1.24485,0.311212 -1.86727,1.089242 -1.86727,2.33409 -0.15561,1.244848 0,2.489696 0,3.734544 -0.15561,2.33409 0.15561,4.356968 -0.31121,6.691058 -0.15561,2.489696 0.62242,3.423332 3.11212,3.267726 0.1556,-0.155606 0.1556,-0.155606 0.31121,-0.155606 2.95651,-0.155606 5.91303,-0.466818 8.86954,-0.466818 4.20136,0 7.31348,2.022878 9.64757,5.290604 1.71167,2.645302 0.93364,6.22424 -0.46681,8.091512 -1.71167,2.022878 -3.73455,3.267726 -6.06864,3.89015 -3.57894,0.77803 -7.00227,1.55606 -10.73681,1.55606 -1.71167,-0.155606 -3.42333,0 -5.135,-0.155606 -1.40045,0 -2.80091,-0.155606 -4.04576,-0.466818 -3.57893,-1.089242 -7.00227,-1.867272 -10.58121,-2.956514 -1.71166,-0.622424 -2.95651,-0.155606 -3.73454,1.55606 l -1.55606,3.423332 c -0.62242,1.244848 -1.24485,2.489696 -1.71167,3.734544 l -2.02287,5.290605 -1.55606,3.734544 c -0.62243,1.400454 -0.31122,2.800908 1.08924,3.89015 0.46682,0.466818 1.08924,0.622424 1.55606,1.089242 4.51257,2.33409 9.18075,4.356968 14.16015,5.44621 4.20136,0.77803 8.55833,2.022878 12.91529,1.55606 0.77803,0 1.40046,0.155606 2.17849,0.155606 1.40045,0.466818 2.80091,0.466818 4.51257,0.622424 3.57894,0.155606 6.69106,-0.466818 10.27,-1.244848 3.73454,-0.77803 7.15787,-2.178484 10.11439,-4.823786 1.71166,-1.400454 2.80091,-2.800908 4.20136,-4.512574 3.11212,-3.11212 5.44621,-6.691058 7.46909,-10.425603 2.33409,-4.201362 3.89015,-8.55833 4.35697,-13.382116 0.46681,-4.201362 0.62242,-7.935906 -0.77803,-12.137268 -1.40046,-3.578938 -2.64531,-6.846664 -5.60182,-9.33636 -1.40045,-1.244848 -2.6453,-2.022878 -4.35697,-3.11212 -1.71166,-1.244848 -1.86727,-1.867272 -0.77803,-3.89015 l 3.11212,-6.846664 c 0.77803,-1.711666 1.08924,-3.423332 0.93364,-5.290603 0,-1.711674 0.1556,-3.423334 0,-5.135004 0,-1.40045 -0.15561,-2.6453 -0.46682,-3.89015 -1.08924,-3.89015 -2.95651,-7.62469 -5.75742,-11.20363 -2.33409,-2.95651 -4.97939,-5.135 -8.71394,-5.91303 -0.46682,-0.1556 -1.24485,-0.31121 -2.33409,-0.77803 -2.33409,-0.62242 -4.51257,-1.08924 -6.84666,-0.62242 l -6.06864,0.31121 c -1.71166,0 -3.26772,0.15561 -4.82378,0.46682 -3.89015,0.77803 -7.6247,1.71167 -11.82606,2.4897 l -7.00227,1.24484 c -1.55606,0.31122 -2.33409,1.24485 -2.33409,2.95652 0,1.24485 0,2.33409 0.15561,3.57894 l 0.62242,12.29287 c 0,1.86727 0.46682,2.6453 2.80091,2.6453 h 2.33409 c 3.26773,-0.46682 6.69106,-0.46682 9.95878,-0.62243 z"
         id="path2018"
         style="stroke:none;stroke-width:3.175;stroke-dasharray:none;stroke-opacity:1" />
      <path
         d="m 421.7979,-34.203388 c -0.10695,2.954579 -0.36377,5.748025 -0.31522,8.708233 -0.0506,1.39954 0.0598,2.6492 0.16466,4.054367 0.24909,1.721803 1.30946,2.538727 3.01439,2.756151 l 1.08853,0.0394 c 1.39952,0.05066 2.8047,-0.05418 4.51524,0.0077 1.09415,-0.116102 2.17143,0.234297 3.27685,-0.192799 3.7715,-0.953431 7.37624,-1.601483 10.99224,-2.560544 2.51621,-0.687456 5.1823,-1.213778 7.26577,-2.851146 4.00581,-3.12486 8.01162,-6.249721 12.0287,-9.685591 1.76121,-1.337616 3.07279,-3.158634 4.84525,-4.80726 1.2947,-1.354505 2.73928,-2.547876 4.04522,-4.213391 2.95106,-4.097289 5.44687,-8.522473 7.48743,-13.275552 0.52842,-1.693658 1.36223,-3.220556 1.89066,-4.914214 1.37351,-3.531562 2.73575,-6.752117 3.33174,-10.311824 l 1.57614,-9.129714 c 0.92387,-4.014963 0.92031,-8.219209 0.14494,-12.607094 -0.88588,-5.637558 -2.87717,-10.848004 -5.33499,-16.075334 -0.43836,-0.79441 -1.02661,-1.74996 -1.77598,-2.55562 -2.2425,-2.5725 -4.80163,-5.00075 -7.68867,-6.97375 -5.46867,-3.77925 -11.48268,-5.39832 -17.84146,-6.09562 -4.80375,-0.64101 -9.63563,-0.50451 -14.46188,-0.5235 -3.11008,-0.11259 -6.38694,0.0802 -9.51391,0.43414 -1.56066,0.0992 -2.36633,0.84859 -2.57812,2.398 -0.39545,2.3213 -0.63539,4.64824 -0.71461,6.82526 -0.30749,4.19298 -0.60935,8.23045 -0.76134,12.42907 -0.19488,1.0829 -0.22874,2.01592 -0.26805,3.10446 -0.64102,4.803743 -0.95416,9.152226 -1.27288,13.656222 -0.62413,4.337229 -0.62624,8.696974 -1.25599,13.189707 -0.27371,3.259958 -0.69733,6.358781 -0.81552,9.62437 -0.39755,6.68105 -0.46721,12.906845 -0.69801,19.282514 z m 26.33015,-56.347394 c 0.11258,-3.110083 0.0471,-5.603779 0.14283,-8.24735 -0.13861,-0.472134 0.0225,-0.622004 0.0394,-1.088524 0.36168,-1.388284 1.16171,-1.982154 2.24461,-1.787244 4.18172,0.61849 7.88567,1.53111 10.88881,4.598274 4.06352,3.884085 5.61082,8.455625 5.40817,14.053774 -0.24769,6.842183 -2.33889,12.9948 -5.82402,18.94125 -1.15044,1.671144 -2.45077,3.181153 -3.91222,4.841037 l -7.118,7.372024 c -0.80567,0.749375 -1.76122,1.337618 -2.56125,1.93149 -1.43331,0.882363 -2.19958,0.543209 -2.13766,-1.167337 0.28493,-3.57097 0.56432,-6.986428 0.69378,-10.563025 l 0.0901,-2.488065 c 0.1351,-3.7321 0.43133,-7.614074 1.03293,-11.329287 0.21742,-1.704918 0.2625,-2.948947 0.32439,-4.659496 0.28493,-3.57097 0.57557,-7.297436 0.68815,-10.40752 z"
         id="path2020"
         style="stroke:none;stroke-width:3.175;stroke-dasharray:none;stroke-opacity:1" />
    </g>
  </g>
</svg>
